<?xml version="1.0" encoding="UTF-8" ?>
<!DOCTYPE svg PUBLIC "-//W3C//DTD SVG 1.1//EN" "http://www.w3.org/Graphics/SVG/1.1/DTD/svg11.dtd">
<svg width="256pt" height="256pt" viewBox="0 0 256 256" version="1.1" xmlns="http://www.w3.org/2000/svg">
<path fill="#ffffff" d=" M 0.00 0.00 L 256.00 0.00 L 256.00 133.85 C 255.65 119.86 249.74 106.08 239.69 96.31 C 228.10 84.70 211.21 78.71 194.89 80.38 C 179.47 81.65 164.94 89.83 155.52 102.05 C 137.48 105.65 118.79 105.82 100.71 102.34 C 91.09 89.68 75.98 81.35 60.09 80.29 C 44.80 79.02 29.11 84.41 17.85 94.84 C 6.97 104.65 0.43 118.98 0.00 133.62 L 0.00 0.00 Z" />
<path fill="#000000" d=" M 133.99 10.91 C 132.67 7.53 138.23 4.77 140.23 7.68 C 143.17 11.15 145.84 14.85 148.69 18.40 C 153.29 24.51 158.92 30.19 161.14 37.72 C 164.75 49.25 160.89 63.93 149.59 69.69 C 144.12 73.21 136.56 74.03 132.93 79.96 C 129.45 86.19 132.40 93.46 131.10 100.07 C 130.09 100.45 129.09 100.84 128.09 101.24 C 126.43 100.74 124.37 99.95 124.47 97.85 C 124.03 90.94 123.04 83.51 126.17 77.06 C 129.87 70.28 137.90 68.44 144.28 65.14 C 152.63 61.17 158.14 50.95 155.14 41.87 C 151.10 29.71 140.79 21.38 133.99 10.91 Z" />
<path fill="#000000" d=" M 17.85 94.84 C 29.11 84.41 44.80 79.02 60.09 80.29 C 75.98 81.35 91.09 89.68 100.71 102.34 C 118.79 105.82 137.48 105.65 155.52 102.05 C 164.94 89.83 179.47 81.65 194.89 80.38 C 211.21 78.71 228.10 84.70 239.69 96.31 C 249.74 106.08 255.65 119.86 256.00 133.85 L 256.00 135.44 C 254.15 151.95 253.64 168.63 250.52 184.98 C 248.48 196.21 245.95 207.42 241.88 218.10 C 238.58 227.81 233.80 237.25 226.60 244.65 C 223.68 247.72 219.52 250.15 215.14 249.47 C 209.67 248.89 205.07 245.48 201.18 241.83 C 191.57 232.59 185.23 220.70 178.85 209.15 C 173.99 199.48 169.35 189.67 165.61 179.49 C 164.64 176.57 161.62 175.17 159.07 173.89 C 145.26 168.29 129.85 168.61 115.24 169.74 C 107.36 170.59 99.29 172.21 92.54 176.58 C 91.20 177.30 90.75 178.84 90.14 180.12 C 85.53 191.50 80.56 202.77 74.51 213.46 C 68.49 224.61 61.76 235.78 52.05 244.12 C 47.04 248.44 39.30 251.65 33.18 247.62 C 27.09 243.41 23.01 236.93 19.50 230.54 C 12.64 216.86 8.68 201.90 5.93 186.89 C 2.62 170.13 2.10 153.01 0.00 136.10 L 0.00 133.62 C 0.43 118.98 6.97 104.65 17.85 94.84 Z" />
<path fill="#ffffff" d=" M 199.26 100.25 C 205.52 98.47 212.55 103.51 212.65 110.05 C 213.38 117.11 205.71 123.18 199.01 120.89 C 192.60 119.30 189.27 111.16 192.59 105.47 C 194.05 102.94 196.46 101.07 199.26 100.25 Z" />
<path fill="#ffffff" d=" M 44.24 101.21 C 57.31 97.85 71.96 105.10 77.31 117.47 C 82.09 127.81 79.94 140.80 72.10 149.06 C 63.20 158.95 47.23 161.23 35.97 154.10 C 26.48 148.51 20.83 137.14 22.18 126.20 C 23.28 114.30 32.60 103.83 44.24 101.21 Z" />
<path fill="#000000" d=" M 44.39 105.56 C 58.30 101.45 74.06 111.61 76.07 125.95 C 78.86 139.76 68.05 154.22 54.08 155.57 C 40.81 157.59 27.31 147.31 25.69 134.00 C 23.52 121.54 32.15 108.57 44.39 105.56 Z" />
<path fill="#ffffff" d=" M 45.25 112.34 C 46.27 109.48 49.78 110.04 52.16 110.05 C 54.02 109.86 56.10 110.93 56.31 112.96 C 56.56 116.82 56.33 120.69 56.41 124.56 C 60.61 124.66 64.82 124.36 69.01 124.72 C 72.25 125.59 71.56 129.53 71.55 132.05 C 71.70 133.97 70.21 136.00 68.16 135.88 C 64.25 136.04 60.32 135.88 56.41 135.94 C 56.26 140.00 56.70 144.09 56.18 148.13 C 55.19 151.15 51.45 150.43 48.99 150.47 C 47.05 150.63 44.97 149.17 45.09 147.10 C 44.92 143.38 45.09 139.66 45.03 135.94 C 41.27 135.87 37.51 136.10 33.76 135.82 C 31.64 135.34 30.93 133.03 31.12 131.10 C 31.03 128.74 30.86 125.17 33.94 124.67 C 37.63 124.41 41.33 124.63 45.03 124.56 C 45.17 120.49 44.74 116.38 45.25 112.34 Z" />
<path fill="#ffffff" d=" M 216.42 121.71 C 223.26 118.19 232.15 124.36 231.46 131.96 C 231.46 140.27 220.44 145.39 214.19 139.82 C 207.88 135.36 209.25 124.53 216.42 121.71 Z" />
<path fill="#ffffff" d=" M 182.32 123.10 C 188.48 120.41 196.21 125.12 196.76 131.78 C 197.98 138.91 190.41 145.53 183.49 143.40 C 177.41 142.06 173.69 134.75 176.27 129.06 C 177.34 126.35 179.60 124.14 182.32 123.10 Z" />
<path fill="#ffffff" d=" M 250.52 184.98 C 253.64 168.63 254.15 151.95 256.00 135.44 L 256.00 256.00 L 0.00 256.00 L 0.00 136.10 C 2.10 153.01 2.62 170.13 5.93 186.89 C 8.68 201.90 12.64 216.86 19.50 230.54 C 23.01 236.93 27.09 243.41 33.18 247.62 C 39.30 251.65 47.04 248.44 52.05 244.12 C 61.76 235.78 68.49 224.61 74.51 213.46 C 80.56 202.77 85.53 191.50 90.14 180.12 C 90.75 178.84 91.20 177.30 92.54 176.58 C 99.29 172.21 107.36 170.59 115.24 169.74 C 129.85 168.61 145.26 168.29 159.07 173.89 C 161.62 175.17 164.64 176.57 165.61 179.49 C 169.35 189.67 173.99 199.48 178.85 209.15 C 185.23 220.70 191.57 232.59 201.18 241.83 C 205.07 245.48 209.67 248.89 215.14 249.47 C 219.52 250.15 223.68 247.72 226.60 244.65 C 233.80 237.25 238.58 227.81 241.88 218.10 C 245.95 207.42 248.48 196.21 250.52 184.98 Z" />
<path fill="#ffffff" d=" M 202.38 144.57 C 208.86 142.69 216.00 148.28 215.70 155.02 C 215.90 161.63 208.90 167.20 202.50 165.33 C 196.97 164.11 193.16 158.01 194.63 152.52 C 195.48 148.68 198.63 145.62 202.38 144.57 Z" />
</svg>
